<?xml version="1.0" standalone="yes"?>
<svg xmlns="http://www.w3.org/2000/svg" width="480" height="123">
<path style="fill:#010101; stroke:none;" d="M0 0L0 123L165 123L165 120L153 115L157 112L153 114L155 112L155 111L153 108L158 108C158.807 111.765 162.574 111.352 166 112L164 103L167 104L164 98L166 100L173 102L170 104L185 92L185 91L180 91L180 89L190 87L190 88L188 89L191 90L196 88L202 84L202 83L198 84L197 84L202 76L202 75L198 75L198 80L197 80L195 75L194 75L193 77L192 77L186 73C186.963 68.699 186.305 65.9632 183 63L183 66L182 63L178 65L176 58L169 55L171 62C166.445 59.1368 165.509 55.6391 167 51L161 45L200 44L200 47L202 47L202 44L211 45L211 46L208 49L213 54L213 46L222 61L221 58L228 63L226 66L230 64L230 63L222 55L227 57L227 54L236 56L236 57L234 59L239 59L240 59L241 59L241 57L245 58L252 54L250 50L263 48L263 44L269 46L269 45L267 45L267 44L273 44L272 39L274 42L280 42L279 38L283 39L277 37L278 34L277 34L275 36L279 32L279 35L291 38L288 33L290 35L293 33C300.642 34.3748 312.283 28.9274 316 22L317 22L317 28L319 23L325 25L326 25L347 18L347 17L342 17L342 15L349 15L349 11L352 17L353 17L359 13L360 16L364 16L364 11L367 14L374 13L375 13L376 11L377 11L377 13L378 13L379 13L394 10L391 7L406 8L409 6L409 7L407 7L407 8C415.285 7.07606 423.317 -0.114456 432 5L437 4L437 3L432 3L432 2L434 0L432 2L424 2L423 2L422 2C420.444 0.187096 419.556 0.187119 418 2L417 2C409.92 -2.95894 394.487 0 386 0L306 0L0 0z"/>
<path style="fill:#ffffff; stroke:none;" d="M416 0L416 2L418 2L418 0L416 0M422 0L422 2L424 2L424 0L422 0M428 0L432 2L428 0M434 0L432 2L432 3L437 3L437 4L432 5C425.719 -1.72071 413.625 6.67567 407 8L407 7L409 7L409 6L406 8L391 7L394 10L379 13L378 13L377 13C376.213 10.953 375.787 10.953 375 13L374 13C371.704 10.5945 369.517 12.4501 367 14L364 11L364 16L359 13L353 17L352 17L349 11L349 15L342 15L342 17L347 17L347 18C342.617 18.0184 326.766 21.4265 326 25L325 25L319 23L317 28L317 22L316 22C310.854 28.3499 301.229 33.6926 293 33L290 35L291 33L288 33L291 38L279 35L279 32L275 36L277 34L278 34L277 37L283 39L279 38L280 42L278 40L274 42L272 39L273 44L267 44L267 45L269 45L269 46L263 44L263 48L250 50L252 54C248.736 54.4011 245.435 54.482 245 58L241 59L240 59L239 59L239 57L234 59L236 57L236 56L227 54L227 57L222 55L230 63L230 64L226 66L228 63L221 58L222 61L213 46L213 54C212.663 50.5108 211.54 49.1698 208 49L211 46L211 45L202 44L202 47L200 47L200 44C188.366 44 171.787 40.8103 161 45L167 51L165 53L171 62L169 55L176 58L178 65L182 63L182 66L183 66L183 63L186 73L192 77L193 77L194 75L195 75L197 80L198 80L198 75L202 75L202 76L199 76L197 84L198 84L202 83L202 84L196 88C193.054 87.254 191.689 86.8029 191 90L188 89L190 88L190 87L180 89L180 91L185 91L185 92L170 104L173 102L164 98L167 104L164 103L166 112L158 108L153 108L155 111L155 112L153 114L157 112L153 115C156.404 119.054 159.863 119.862 165 120L165 123L196 123L203 116L201 119L208 118L206 115L207 109L218 108L217 103L224 98L224 94L228 93L228 97L231 98C228.857 102.934 233.467 110.444 239 107L241.614 115.913L262 123L293 123L293 120L297 120C296.32 115.252 294.296 111.283 290 109L287 111L287 110L289 108L284 109L281 105L284 104L281 102L283 98L276 97L275 100L271 98L270 98L272 95L273 89L269 94L268 94L263 91L267 87L266 86L259 90L260 87L256 88L256 87C259.721 82.6943 248.977 79.9764 255 74L254 76L255 76L257 75L258 75L258 76L253 77C256.431 81.3636 262.622 75.4644 266 73L266 72L261 72L261 71L270 65L267 72L271 70L265 76L270 73L271 73L273 76L274 63L283 64L282 61L288 59L282 60L282 59C287.93 55.833 291.088 53.5539 298 55L296 53L296 52L310 54L302 49L308 50L311 43L312 43L310 52L314 55L316 50L312 52L315 43L317 40L320 42L321 42L326 40L326 41L324 44L325 42L326 42L328 44L326 41L328 41L328 40L326 40L328 36L336 36L336 37L334 37L334 38L344 31L348 33L349 33L350 31L353 33L355 29L354 32L368 32L365 30L365 29L370 29L370 27L365 29L361 29L364 27L364 26L358 27L365 24L370 26L369 23L390 22L396 16L395 19L396 20L398 20L407 17L406 14L410 18L423 16L420 12L420 11L439 11L439 10L437 10L437 9L454 8L453 10L457 10L457 9L454 8L454 7L462 6L462 4L439 4L439 3L441 1L436 0L434 0z"/>
<path style="fill:#010101; stroke:none;" d="M436 2L441 1L439 3L439 4L462 4L462 6L454 7L454 8L457 9L457 10L453 10L454 8L437 9L437 10L439 10L439 11L420 11L420 12L423 12L423 16L410 18L406 14L407 17L398 20L396 20L396 16L390 22L369 23L370 26L365 24L358 27L364 26L364 27L361 29L365 29L370 27L370 29L365 29L365 30L368 32L354 32L355 29C352.232 29.6054 352.423 30.2888 353 33L349 33L348 33L344 31L334 38L334 37L336 37L336 36L328 36L326 40L328 40L328 41L326 41L328 44L325 42L324 44L323 43L326 41L326 40L321 42L320 42L317 40L315 43L312 52L316 50L314 55L310 52L312 43L311 43L308 50L302 49L310 54L296 52L296 53L298 55C291.119 52.9933 287.481 54.7924 282 59L282 60L288 59L282 61L283 64L274 63L273 76L271 73L270 73L265 76L271 70L267 72L270 65L261 71L261 72L266 72L266 73C262.188 74.9835 256.839 80.501 253 77L258 76L258 75L254 76L255 74C247.56 78.7101 257.15 81.5526 256 87L256 88L260 87L259 90L266 86L267 87L263 91L268 94L269 94L273 89L272 95L270 98L271 98L272 96L275 100L276 97L283 98L281 102L284 104L281 105L284 109L289 108L287 110L287 111L290 109L297 120L293 120L293 123L480 123L480 0L462 0L463 2L457 2L458 0L445 0L446 3C443.029 0.375412 439.001 -1.435 436 2z"/>
<path style="fill:#ffffff; stroke:none;" d="M444 0L446 3L444 0M457 1L457 2L463 2L457 1M413 1L410 6L416 2L413 1M395.667 2.33334L396.333 2.66666L395.667 2.33334M463 2L463 3L467 4L463 2M405 5L409 4L405 5M391 4L391 6L395 6L395 4L391 4M402.333 4.66666L402.667 5.33334L402.333 4.66666z"/>
<path style="fill:#010101; stroke:none;" d="M415 6L415 7L421 6L415 6z"/>
<path style="fill:#ffffff; stroke:none;" d="M441 10L441 11L444 11L441 10M447 10L447 11L450 11L447 10M465.667 10.3333L466.333 10.6667L465.667 10.3333M337 11L337 13L339 13L339 11L337 11M346 11L348 13L348 11L346 11M340 13L340 14L344 14L340 13M353 14L356 14L355 12L353 14M360 12L360 14L363 14L363 12L360 12z"/>
<path style="fill:#010101; stroke:none;" d="M409.667 13.3333L410.333 13.6667L409.667 13.3333z"/>
<path style="fill:#ffffff; stroke:none;" d="M337.667 14.3333L338.333 14.6667L337.667 14.3333z"/>
<path style="fill:#010101; stroke:none;" d="M357 16L358 17L357 16M398 16L399 17L398 16z"/>
<path style="fill:#ffffff; stroke:none;" d="M337.667 17.3333L338.333 17.6667L337.667 17.3333z"/>
<path style="fill:#010101; stroke:none;" d="M349 18L350 19L349 18M388 18L389 19L388 18z"/>
<path style="fill:#ffffff; stroke:none;" d="M402.333 19.6667L402.667 20.3333L402.333 19.6667M393.667 21.3333L394.333 21.6667L393.667 21.3333M408 21L408 22L411 22L408 21M305 22L305 24L307 22L305 22M311 22L314 24L311 22M307 25L310 23L307 25z"/>
<path style="fill:#010101; stroke:none;" d="M328 23L329 24L328 23M322 25L323 26L322 25z"/>
<path style="fill:#ffffff; stroke:none;" d="M305.333 26.6667L305.667 27.3333L305.333 26.6667z"/>
<path style="fill:#010101; stroke:none;" d="M313 27L311 30L313 27M356 27L357 31L361 30L361 29L356 27M350.333 28.6667L350.667 29.3333L350.333 28.6667z"/>
<path style="fill:#ffffff; stroke:none;" d="M273 32L272 37L273 32M283 33L283 34L286 34L283 33M275.333 37.6667L275.667 38.3333L275.333 37.6667z"/>
<path style="fill:#010101; stroke:none;" d="M285 37L285 39L287 39L287 37L285 37z"/>
<path style="fill:#ffffff; stroke:none;" d="M329 38L329 40L333 40L333 38L329 38M335 39L335 42L329 41C331.881 44.7801 335.832 43.9193 338 40L337 39L335 39M214 43L219 48L214 43M252 43L258 47L252 43M156 44L158 46L158 44L156 44M260.667 45.3333L261.333 45.6667L260.667 45.3333M251 46L251 48L254 48L254 46L251 46z"/>
<path style="fill:#010101; stroke:none;" d="M205.333 47.6667L205.667 48.3333L205.333 47.6667z"/>
<path style="fill:#ffffff; stroke:none;" d="M158 50L162 53L158 50z"/>
<path style="fill:#010101; stroke:none;" d="M207 50L208 51L207 50M209 51L211 53L209 51M253.667 51.3333L254.333 51.6667L253.667 51.3333M299 51L300 52L299 51M169.667 52.3333L170.333 52.6667L169.667 52.3333M301.667 52.3333L302.333 52.6667L301.667 52.3333z"/>
<path style="fill:#ffffff; stroke:none;" d="M220 54L218 57L221 58L222 57L220 54M239.667 56.3333L240.333 56.6667L239.667 56.3333z"/>
<path style="fill:#010101; stroke:none;" d="M227 58L227 59L231 60L231 59L227 58M178 59L177 61L179 61L178 59M279 59L278 64L281 59L279 59M238 60L239 61L238 60M275 60L276 61L275 60M235.667 61.3333L236.333 61.6667L235.667 61.3333z"/>
<path style="fill:#ffffff; stroke:none;" d="M289 65L294 61L289 65M172 62L173 63L172 62M175 63L175 65L177 65L175 63z"/>
<path style="fill:#010101; stroke:none;" d="M270.667 63.3333L271.333 63.6667L270.667 63.3333z"/>
<path style="fill:#ffffff; stroke:none;" d="M164.667 64.3333L165.333 64.6667L164.667 64.3333M285.667 64.3333L286.333 64.6667L285.667 64.3333z"/>
<path style="fill:#010101; stroke:none;" d="M222 66L221 68L223 68L222 66M189 67L188 69L190 69L189 67M219 67L220 68L219 67M264 67L263 69L264 67M193.333 70.6667L193.667 71.3333L193.333 70.6667M220 70L221 71L220 70M189.667 71.3333L190.333 71.6667L189.667 71.3333M217 71L218 72L217 71M214 72L215 73L214 72M257 72L259 75L260 74L257 72M192 73L193 74L192 73M197 73L198 74L197 73M211 73L211 75L213 75L211 73z"/>
<path style="fill:#ffffff; stroke:none;" d="M187 74L187 76L189 76L189 74L187 74z"/>
<path style="fill:#010101; stroke:none;" d="M209 75L211 77L209 75M206 76L207 77L206 76M202 77L203 78L202 77M203 79L204 81L205 81L206 79L203 79M247 79L248 80L247 79z"/>
<path style="fill:#ffffff; stroke:none;" d="M258 83L262 79L258 83z"/>
<path style="fill:#010101; stroke:none;" d="M238.667 83.3333L239.333 83.6667L238.667 83.3333M251.667 83.3333L252.333 83.6667L251.667 83.3333M254 85L256 87L256 85L254 85M238.333 86.6667L238.667 87.3333L238.333 86.6667z"/>
<path style="fill:#ffffff; stroke:none;" d="M175 87L177 93L177 94L177 95L175 97L179 97L180 92L177 93L181 87L175 87M183.667 87.3333L184.333 87.6667L183.667 87.3333M270 87L267 91L270 87z"/>
<path style="fill:#010101; stroke:none;" d="M231 90L230 92L231 90M188.667 91.3333L189.333 91.6667L188.667 91.3333M263 92L264 93L263 92M186 93L187 94L186 93M227 93L224 94L224 98C219.959 97.8452 218.506 99.3342 217 103L218 108L207 109L206 115L208 118L201 119L203 116L196 123L262 123C259.909 115.852 247.631 118.71 242.236 115.856C239.822 114.58 239.99 109.393 239 107C233.359 109.116 229.837 102.942 231 98L228 97L227 93M182 95L182 97L184 95L182 95M266 95L267 96L266 95z"/>
<path style="fill:#ffffff; stroke:none;" d="M171 98L177 99L177 98L174 99L171 98z"/>
<path style="fill:#010101; stroke:none;" d="M277.667 99.3333L278.333 99.6667L277.667 99.3333M168 101L169 102L168 101M215 102L213 106L217 103L215 102M233 102L232 104L234 104L233 102M236.333 102.667L236.667 103.333L236.333 102.667M278 102L279 103L278 102M168 105L169 106L168 105z"/>
<path style="fill:#ffffff; stroke:none;" d="M229 105L233 109L229 105z"/>
<path style="fill:#010101; stroke:none;" d="M235 105L238 107L238 106L235 105z"/>
<path style="fill:#ffffff; stroke:none;" d="M160 108L160 110L162 110L162 108L160 108M301 108L301 111L303 111L303 108L301 108M163 109L164 110L163 109z"/>
<path style="fill:#010101; stroke:none;" d="M242.667 110.333L243.333 110.667L242.667 110.333M247 110L247 115L250 114L247 110z"/>
<path style="fill:#ffffff; stroke:none;" d="M296 110L297 114L298 114L296 110z"/>
<path style="fill:#010101; stroke:none;" d="M205 112L206 113L205 112M290 112L290 113L293 114L290 112M242 115L245 113L242 115M251 113L252 114L251 113M162 114L163 115L162 114M202 114L203 115L202 114M157.667 115.333L158.333 115.667L157.667 115.333M251 115L252 116L251 115M205 117L206 118L205 117z"/>
<path style="fill:#ffffff; stroke:none;" d="M245 118L246 120L247 120L248 118L245 118z"/>
</svg>
